<?xml version="1.0" encoding="UTF-8" ?>
<!DOCTYPE svg PUBLIC "-//W3C//DTD SVG 1.1//EN" "http://www.w3.org/Graphics/SVG/1.1/DTD/svg11.dtd">
<svg width="233pt" height="73pt" viewBox="0 0 233 73" version="1.1" xmlns="http://www.w3.org/2000/svg">
<g id="#ffffffff">
<path fill="#ffffff" opacity="1.00" d=" M 8.63 20.44 C 1.93 17.26 2.82 3.81 11.04 3.37 C 17.13 3.13 23.23 3.34 29.33 3.33 C 29.47 5.33 29.48 7.34 29.38 9.35 C 23.17 9.46 16.97 9.39 10.76 9.41 C 10.37 11.51 10.35 13.65 10.79 15.75 C 16.08 15.80 21.37 15.81 26.66 15.71 C 28.19 17.56 30.18 19.43 30.15 22.03 C 30.08 24.65 28.30 26.72 26.91 28.77 C 21.53 28.82 16.14 28.79 10.75 28.79 C 9.42 30.91 9.46 33.21 10.75 35.34 C 16.66 35.31 22.57 35.33 28.47 35.24 C 29.04 35.86 30.16 37.09 30.72 37.71 C 30.37 36.97 29.66 35.51 29.30 34.77 C 23.18 34.57 17.00 35.12 10.92 34.25 C 10.14 32.59 10.77 30.92 11.37 29.34 C 17.58 29.44 23.81 29.19 30.02 29.45 C 32.05 29.36 33.98 30.95 34.26 32.96 C 35.01 44.45 33.54 56.07 35.01 67.51 C 35.54 65.40 35.75 63.22 35.73 61.05 C 35.74 52.70 35.83 44.35 35.79 36.00 C 35.85 33.90 35.64 31.56 36.99 29.77 C 44.13 29.22 51.31 29.57 58.47 29.65 C 58.37 31.53 58.21 33.41 57.92 35.28 C 52.16 35.40 46.37 34.88 40.64 35.54 C 40.09 46.46 40.49 57.43 40.39 68.37 C 39.14 69.11 37.93 69.95 36.57 70.47 C 33.40 71.43 29.52 68.54 30.10 65.12 C 30.18 56.36 29.93 47.59 30.33 38.83 C 29.94 39.53 29.16 40.93 28.76 41.63 C 22.51 42.07 16.20 41.81 9.93 41.79 C 6.80 41.89 4.73 38.85 4.36 36.03 C 3.71 31.82 4.02 26.41 8.04 23.92 C 11.16 22.59 14.70 23.42 18.00 23.28 C 20.25 23.11 23.38 24.04 24.44 21.32 C 19.19 20.76 13.80 21.67 8.63 20.44 Z" />
<path fill="#ffffff" opacity="1.00" d=" M 33.54 6.98 C 34.28 6.99 35.76 7.03 36.50 7.04 C 39.03 11.94 41.58 16.82 44.12 21.72 C 44.14 16.81 44.13 11.90 44.13 7.00 C 44.72 7.00 45.88 7.00 46.47 7.00 C 46.43 13.67 46.56 20.34 46.38 27.01 C 45.64 26.66 44.16 25.95 43.42 25.59 C 40.56 21.22 38.63 16.31 36.02 11.78 C 35.99 16.67 36.00 21.56 36.00 26.44 C 35.38 26.46 34.14 26.49 33.53 26.51 C 33.54 20.00 33.53 13.49 33.54 6.98 Z" />
<path fill="#ffffff" opacity="1.00" d=" M 53.53 7.00 C 54.15 7.00 55.38 7.00 56.00 7.00 C 56.00 9.67 56.00 12.33 56.00 15.00 C 58.42 15.00 60.84 15.00 63.27 15.00 C 63.27 12.33 63.27 9.67 63.27 7.00 C 63.88 7.00 65.12 7.00 65.73 7.00 C 65.74 13.49 65.72 19.99 65.74 26.48 L 63.27 26.54 C 63.28 23.51 63.26 20.49 63.26 17.47 C 60.84 17.47 58.42 17.46 56.00 17.46 C 56.00 20.45 56.00 23.45 56.00 26.44 C 55.38 26.46 54.14 26.49 53.53 26.51 C 53.54 20.01 53.53 13.50 53.53 7.00 Z" />
<path fill="#ffffff" opacity="1.00" d=" M 76.60 7.12 C 77.23 7.08 78.49 6.99 79.13 6.94 C 81.09 13.46 83.16 19.95 85.10 26.47 C 84.42 26.47 83.05 26.46 82.36 26.46 C 81.87 24.79 81.38 23.12 80.91 21.44 C 78.92 21.46 76.94 21.47 74.95 21.48 C 74.10 23.76 73.91 27.01 70.68 26.88 C 72.41 20.23 74.63 13.71 76.60 7.12 M 77.88 10.92 C 77.08 13.61 76.30 16.30 75.52 18.99 C 77.06 19.00 78.61 19.00 80.15 19.00 C 79.38 16.31 78.63 13.62 77.88 10.92 Z" />
<path fill="#ffffff" opacity="1.00" d=" M 90.00 7.00 C 90.75 7.00 92.24 7.00 92.98 7.01 C 95.51 11.90 98.05 16.79 100.59 21.67 C 100.60 16.78 100.60 11.89 100.60 7.00 C 101.20 7.00 102.40 7.00 103.00 7.00 C 102.96 13.62 103.11 20.25 102.90 26.87 C 99.69 26.94 98.78 23.72 97.52 21.44 C 95.86 18.12 94.14 14.83 92.41 11.54 C 92.50 16.53 92.45 21.52 92.48 26.51 C 91.86 26.49 90.62 26.46 90.00 26.44 C 90.00 19.96 90.00 13.48 90.00 7.00 Z" />
<path fill="#ffffff" opacity="1.00" d=" M 109.85 12.10 C 111.14 8.32 115.29 6.24 119.14 7.01 C 121.00 6.89 120.93 9.28 121.65 10.42 C 119.30 10.06 116.59 8.64 114.45 10.37 C 110.61 13.24 110.39 19.91 114.02 23.03 C 116.13 24.77 118.86 23.59 121.17 23.06 C 121.15 23.81 121.10 25.32 121.07 26.08 C 118.07 26.25 114.47 27.35 111.99 25.03 C 108.48 21.84 108.40 16.31 109.85 12.10 Z" />
<path fill="#ffffff" opacity="1.00" d=" M 127.00 7.00 C 129.81 7.00 132.63 7.00 135.44 7.00 C 135.46 7.62 135.49 8.85 135.51 9.47 C 133.49 9.47 131.48 9.47 129.47 9.46 C 129.47 11.31 129.47 13.15 129.45 14.99 C 131.30 15.00 133.15 15.00 135.00 15.00 C 135.00 15.62 135.00 16.85 135.00 17.46 C 133.15 17.47 131.31 17.47 129.47 17.47 C 129.47 19.64 129.46 21.82 129.46 23.99 C 131.55 24.00 133.64 24.00 135.73 24.01 C 135.74 24.63 135.76 25.87 135.76 26.49 C 132.84 26.47 129.92 26.46 127.00 26.46 C 127.00 19.98 127.00 13.49 127.00 7.00 Z" />
<path fill="#ffffff" opacity="1.00" d=" M 141.27 6.96 C 145.19 7.07 150.33 6.22 152.85 10.03 C 154.97 14.30 155.05 20.15 151.94 23.97 C 149.30 27.06 144.87 26.44 141.26 26.55 C 141.27 20.02 141.27 13.49 141.27 6.96 M 143.76 9.23 C 143.72 14.26 143.72 19.28 143.75 24.31 C 146.12 23.87 149.07 23.82 150.48 21.48 C 152.12 18.71 152.15 15.05 150.80 12.15 C 149.48 9.52 146.27 9.55 143.76 9.23 Z" />
<path fill="#ffffff" opacity="1.00" d=" M 43.53 41.00 C 46.17 41.00 48.81 41.00 51.45 41.01 C 51.47 41.62 51.49 42.86 51.51 43.48 C 49.58 43.47 47.66 43.47 45.73 43.46 C 45.74 45.30 45.73 47.15 45.73 49.00 C 47.53 49.00 49.33 49.00 51.13 49.00 C 51.13 49.62 51.14 50.85 51.14 51.46 C 49.34 51.46 47.54 51.46 45.73 51.47 C 45.74 53.31 45.73 55.15 45.73 57.00 C 47.77 57.00 49.81 57.00 51.86 57.00 C 51.87 57.62 51.89 58.87 51.90 59.49 C 49.11 59.47 46.31 59.46 43.52 59.47 C 43.55 53.31 43.53 47.16 43.53 41.00 Z" />
<path fill="#ffffff" opacity="1.00" d=" M 58.46 41.63 C 61.14 40.47 66.08 40.21 65.93 44.34 C 63.78 44.17 61.36 42.71 59.36 44.18 C 55.50 46.74 55.38 53.25 58.87 56.16 C 60.81 57.79 63.35 56.47 65.52 56.15 C 65.50 56.87 65.47 58.30 65.45 59.02 C 62.21 59.49 58.11 60.26 55.89 57.15 C 52.61 52.54 53.20 44.59 58.46 41.63 Z" />
<path fill="#ffffff" opacity="1.00" d=" M 68.73 41.00 C 69.30 41.00 70.43 41.00 71.00 41.00 C 71.00 43.67 71.00 46.33 71.00 49.00 C 73.33 49.00 75.67 49.00 78.00 49.00 C 78.00 46.33 78.00 43.67 78.00 41.00 C 78.57 41.00 79.70 41.00 80.27 41.00 C 80.27 47.16 80.26 53.31 80.27 59.46 C 79.70 59.46 78.57 59.47 78.00 59.47 C 78.00 56.80 78.00 54.13 78.00 51.46 C 75.66 51.46 73.33 51.46 71.00 51.46 C 71.00 54.13 71.00 56.80 71.00 59.47 C 70.43 59.47 69.30 59.46 68.73 59.46 C 68.74 53.31 68.73 47.15 68.73 41.00 Z" />
<path fill="#ffffff" opacity="1.00" d=" M 84.74 40.98 C 85.43 40.99 86.81 41.02 87.50 41.04 C 89.96 45.69 92.37 50.36 94.83 55.00 C 94.89 50.34 94.86 45.67 94.87 41.00 C 95.43 41.00 96.57 41.00 97.13 41.00 C 97.13 47.16 97.14 53.32 97.13 59.49 C 96.44 59.47 95.06 59.44 94.38 59.42 C 91.99 54.76 89.45 50.17 87.05 45.51 C 86.99 50.17 87.00 54.82 87.00 59.47 C 86.43 59.47 85.30 59.46 84.73 59.46 C 84.74 53.30 84.73 47.14 84.74 40.98 Z" />
<path fill="#ffffff" opacity="1.00" d=" M 104.49 41.54 C 107.65 40.13 111.95 41.12 113.50 44.41 C 115.33 48.26 115.31 53.27 112.93 56.88 C 110.03 61.20 102.54 60.10 100.96 55.13 C 99.54 50.57 99.78 44.11 104.49 41.54 M 105.32 44.18 C 101.25 47.26 101.59 55.68 107.05 57.00 C 111.56 57.21 113.03 51.63 112.10 48.06 C 111.83 44.97 108.18 41.96 105.32 44.18 Z" />
<path fill="#ffffff" opacity="1.00" d=" M 118.00 41.00 C 118.57 41.00 119.70 41.00 120.27 41.00 C 120.27 46.33 120.27 51.66 120.26 57.00 C 122.26 57.00 124.26 57.00 126.26 57.00 C 126.27 57.62 126.27 58.85 126.27 59.46 C 123.51 59.46 120.76 59.46 118.00 59.46 C 118.00 53.31 118.00 47.15 118.00 41.00 Z" />
<path fill="#ffffff" opacity="1.00" d=" M 132.41 41.41 C 135.83 39.97 140.30 41.68 141.44 45.32 C 142.82 49.34 142.73 54.47 139.69 57.72 C 136.28 61.18 129.58 59.54 128.33 54.77 C 127.00 50.23 127.41 43.50 132.41 41.41 M 134.40 43.49 C 129.24 45.07 128.72 53.22 132.74 56.25 C 135.70 58.51 139.62 55.29 139.65 52.03 C 140.46 48.54 138.81 42.99 134.40 43.49 Z" />
<path fill="#ffffff" opacity="1.00" d=" M 149.40 41.50 C 152.24 40.38 156.99 40.44 157.29 44.41 C 155.29 44.13 153.32 43.33 151.28 43.53 C 146.27 45.13 145.50 52.52 149.06 55.89 C 150.59 57.31 152.80 56.78 154.67 56.75 C 154.70 55.32 154.73 53.88 154.75 52.45 C 153.94 52.46 152.31 52.48 151.50 52.49 C 151.51 51.87 151.54 50.62 151.55 50.00 C 153.37 50.00 155.18 50.00 156.99 50.00 C 157.00 52.75 157.00 55.51 157.02 58.27 C 153.69 59.51 149.24 60.54 146.61 57.41 C 143.01 52.79 143.57 44.11 149.40 41.50 Z" />
<path fill="#ffffff" opacity="1.00" d=" M 159.30 40.81 C 161.30 41.04 163.29 41.23 165.29 41.43 C 164.73 42.08 163.59 43.37 163.03 44.02 C 163.33 49.17 161.79 54.82 164.76 59.45 C 162.82 59.47 160.88 59.46 158.94 59.43 C 161.99 54.66 160.36 48.83 160.73 43.52 C 160.35 43.51 159.59 43.48 159.21 43.46 C 159.24 42.80 159.28 41.47 159.30 40.81 Z" />
<path fill="#ffffff" opacity="1.00" d=" M 167.27 41.00 C 169.93 41.00 172.59 41.00 175.26 41.00 C 175.26 41.62 175.27 42.85 175.28 43.46 C 173.34 43.46 171.40 43.47 169.47 43.48 C 169.47 45.31 169.47 47.15 169.46 48.99 C 171.26 49.00 173.06 49.00 174.87 49.01 C 174.87 49.63 174.88 50.87 174.89 51.50 C 173.08 51.48 171.28 51.47 169.47 51.45 C 169.47 53.30 169.47 55.15 169.46 57.00 C 171.50 57.00 173.54 57.00 175.58 57.00 C 175.59 57.62 175.63 58.86 175.64 59.47 C 172.84 59.46 170.05 59.47 167.25 59.49 C 167.28 53.32 167.26 47.16 167.27 41.00 Z" />
<path fill="#ffffff" opacity="1.00" d=" M 179.77 41.87 C 181.71 40.62 184.14 41.15 186.32 40.96 C 186.44 41.81 186.67 43.51 186.79 44.36 C 184.27 43.23 181.69 43.46 179.40 44.96 C 180.82 47.42 183.16 49.00 185.39 50.64 C 188.19 52.50 188.02 57.68 184.75 58.96 C 182.48 60.21 179.91 59.08 177.66 58.40 C 177.68 57.54 177.72 55.82 177.74 54.96 C 179.88 56.42 183.68 58.52 184.97 54.91 C 184.12 51.44 179.45 51.07 178.06 47.89 C 177.23 45.81 177.75 43.06 179.77 41.87 Z" />
</g>
</svg>
